<svg width="800" height="800" viewBox="0 0 64 64" xml:space="preserve" xmlns="http://www.w3.org/2000/svg"><path d="M43.124 38.264a2.782 2.782 0 0 1-1.967-4.749l7.403-7.403a7.027 7.027 0 0 0 0-9.927 7.027 7.027 0 0 0-9.927 0l-3.169 3.169a2.782 2.782 0 0 1-3.934-3.934l3.169-3.169a12.5 12.5 0 0 1 8.897-3.685c3.361 0 6.52 1.309 8.897 3.685 4.906 4.906 4.906 12.888 0 17.794l-7.403 7.403a2.76 2.76 0 0 1-1.966.816m-21.249 17.19c-3.361 0-6.52-1.309-8.897-3.685a12.5 12.5 0 0 1-3.685-8.897 12.5 12.5 0 0 1 3.685-8.897l7.403-7.403a2.782 2.782 0 0 1 3.934 3.934l-7.403 7.403a7.027 7.027 0 0 0 0 9.927 6.97 6.97 0 0 0 4.963 2.056c1.875 0 3.637-.73 4.963-2.056l3.169-3.169a2.782 2.782 0 0 1 3.934 3.934l-3.169 3.169a12.5 12.5 0 0 1-8.897 3.684m12.888-19.07 12.64 12.953a2.803 2.803 0 1 1-4.433 3.361l-9.054-15.67a.538.538 0 0 1 .847-.644m8.919 4.208 11.855 3.295a2.828 2.828 0 1 1-2.444 4.996l-9.878-7.336a.541.541 0 0 1 .467-.955M21.797 22.727 8.434 18.895a2.819 2.819 0 1 1 2.378-5.029l11.44 7.898a.538.538 0 0 1-.455.963m7.208 2.394-9.668-11.999a2.811 2.811 0 1 1 4.794-2.82l5.791 14.28a.538.538 0 0 1-.917.539" style="fill:#515151"/></svg>