<svg xmlns="http://www.w3.org/2000/svg" viewBox="0 0 423.757 423.757" xml:space="preserve"><path d="m189.294 385.219 112.522 38.538 98.514-98.509-113.3-37.765zm50.668-6.016c-5.96 5.96-15.672 8.54-21.699 5.76-6.021-2.78-6.077-9.861-.113-15.821 5.96-5.96 15.672-8.54 21.699-5.76 6.026 2.78 6.072 9.861.113 15.821m36.336 12.728c-5.96 5.96-15.672 8.54-21.699 5.76-6.021-2.78-6.077-9.861-.113-15.821 5.965-5.96 15.672-8.54 21.699-5.76 6.022 2.78 6.073 9.861.113 15.821m73.262-56.991c5.96-5.96 15.672-8.54 21.699-5.76 6.021 2.78 6.077 9.861.118 15.821s-15.672 8.54-21.699 5.76-6.077-9.861-.118-15.821m-36.229-11.909c5.96-5.96 15.672-8.54 21.699-5.76 6.021 2.78 6.077 9.861.113 15.821-5.96 5.96-15.672 8.54-21.699 5.76-6.021-2.78-6.072-9.861-.113-15.821m-.916 64.988c6.021 2.78 6.077 9.861.113 15.821-5.96 5.96-15.672 8.54-21.699 5.76s-6.077-9.861-.118-15.821c5.965-5.954 15.677-8.535 21.704-5.76m-13.722-83.481c6.021 2.78 6.077 9.861.113 15.821-5.96 5.96-15.672 8.54-21.699 5.76-6.021-2.78-6.077-9.861-.113-15.821 5.96-5.96 15.673-8.535 21.699-5.76m103.465 7.096-37.202-111.611-111.611-37.207 37.202 111.606zm-82.877-87.516c4.168-4.168 12.544-2.555 18.708 3.61s7.782 14.541 3.61 18.708c-4.168 4.168-12.544 2.555-18.708-3.61-6.165-6.164-7.783-14.541-3.61-18.708M135.171 0 29.939 52.613l105.231 52.613 105.226-52.613zm0 63.288c-8.714 0-15.785-4.782-15.785-10.675 0-5.898 7.066-10.675 15.785-10.675s15.785 4.782 15.785 10.675c-.006 5.898-7.071 10.675-15.785 10.675m27.049 138.44c5.028-1.853 9.231 1.08 10.685 6.702l63.022-63.022 12.805 4.27V63.529l-106.819 53.412v122.481l10.798-10.798c-1.101-1.951-1.761-4.48-1.761-7.475 0-8.433 5.049-17.127 11.27-19.421m68.736-114.862c6.226-2.294 11.269 2.678 11.269 11.105s-5.043 17.121-11.269 19.415-11.269-2.678-11.269-11.105c-.001-8.428 5.043-17.121 11.269-19.415m-32.113 55.137c6.226-2.294 11.269 2.678 11.269 11.105s-5.043 17.121-11.269 19.415-11.269-2.678-11.269-11.105 5.048-17.121 11.269-19.415m-47.893-1.828c0-8.427 5.043-17.121 11.269-19.415s11.269 2.678 11.269 11.105c0 8.428-5.043 17.121-11.269 19.415-6.225 2.294-11.269-2.677-11.269-11.105M21.599 202.839l105.313 51.579 1.51-1.51V116.941L21.599 63.529zm86.256-1.111c6.226 2.294 11.269 10.988 11.269 19.415s-5.043 13.399-11.269 11.105-11.269-10.988-11.269-19.415 5.049-13.399 11.269-11.105m-32.844-61.43c6.226 2.294 11.269 10.987 11.269 19.415s-5.043 13.399-11.269 11.105-11.269-10.988-11.269-19.415c-.001-8.427 5.048-13.399 11.269-11.105M41.208 86.866c6.226 2.294 11.269 10.987 11.269 19.415s-5.043 13.399-11.269 11.105-11.269-10.987-11.269-19.415 5.043-13.399 11.269-11.105m198.518 77.773-98.514 98.504 38.543 112.533 97.736-97.746zm-42.071 173.926c-5.96 5.96-13.046 5.909-15.821-.118-2.775-6.026-.2-15.739 5.76-21.699s13.046-5.909 15.821.113.2 15.744-5.76 21.704m32.87-116.792c-5.96 5.96-13.046 5.908-15.821-.113-2.78-6.021-.2-15.739 5.76-21.699s13.046-5.908 15.821.113c2.781 6.026.2 15.739-5.76 21.699"/></svg>